<svg width="113" height="34" viewBox="0 0 113 34" fill="none" xmlns="http://www.w3.org/2000/svg">
<path d="M8.85547 33.0391C7.75391 33.0391 6.72266 32.8633 5.76172 32.5117C4.82422 32.1602 3.99219 31.668 3.26562 31.0352C2.5625 30.4023 2 29.6523 1.57812 28.7852C1.15625 27.9414 0.933594 27.0156 0.910156 26.0078C0.886719 24.6953 1.09766 23.5234 1.54297 22.4922C1.96484 21.4609 2.52734 20.5469 3.23047 19.75C3.95703 18.9531 4.77734 18.2852 5.69141 17.7461C6.60547 17.1836 7.54297 16.7266 8.50391 16.375C7.98828 16.0938 7.49609 15.7539 7.02734 15.3555C6.58203 14.957 6.18359 14.5117 5.83203 14.0195C5.48047 13.5273 5.19922 13.0117 4.98828 12.4727C4.77734 11.9336 4.67188 11.3945 4.67188 10.8555C4.625 9.21484 4.95312 7.72656 5.65625 6.39062C6.38281 5.05469 7.30859 3.91797 8.43359 2.98047C9.55859 2.01953 10.8125 1.28125 12.1953 0.765625C13.6016 0.25 14.9727 -0.0078125 16.3086 -0.0078125C17.1992 -0.0078125 17.9609 0.144531 18.5938 0.449219C19.2266 0.730469 19.7422 1.09375 20.1406 1.53906C20.5391 1.96094 20.832 2.42969 21.0195 2.94531C21.2305 3.4375 21.3477 3.89453 21.3711 4.31641C21.3945 5.08984 21.2891 5.875 21.0547 6.67188C20.8438 7.46875 20.5625 8.19531 20.2109 8.85156C19.8828 9.48438 19.5078 10.0117 19.0859 10.4336C18.6641 10.832 18.2539 11.0312 17.8555 11.0312C17.5508 11.0312 17.2344 10.9844 16.9062 10.8906C16.625 10.8203 16.2969 10.7031 15.9219 10.5391C15.5469 10.375 15.1719 10.1289 14.7969 9.80078C15.4062 9.56641 15.9453 9.23828 16.4141 8.81641C16.8828 8.37109 17.2695 7.87891 17.5742 7.33984C17.9023 6.80078 18.1367 6.25 18.2773 5.6875C18.4414 5.10156 18.5234 4.55078 18.5234 4.03516C18.5 3.28516 18.3242 2.71094 17.9961 2.3125C17.668 1.89062 17.1406 1.67969 16.4141 1.67969C15.4297 1.67969 14.4453 1.92578 13.4609 2.41797C12.4766 2.88672 11.5977 3.55469 10.8242 4.42188C10.0742 5.26562 9.47656 6.28516 9.03125 7.48047C8.60938 8.65234 8.46875 9.92969 8.60938 11.3125C8.72656 12.3672 9.04297 13.2578 9.55859 13.9844C10.0977 14.7109 10.6016 15.2734 11.0703 15.6719C11.4453 15.625 11.7969 15.5898 12.125 15.5664C12.4531 15.5195 12.7578 15.4961 13.0391 15.4961C13.4375 15.4961 13.8359 15.5664 14.2344 15.707C14.6328 15.8477 14.832 16.0469 14.832 16.3047C14.832 16.4922 14.7852 16.7031 14.6914 16.9375C14.6211 17.1719 14.4922 17.3945 14.3047 17.6055C14.1172 17.8164 13.8945 17.9922 13.6367 18.1328C13.3789 18.2734 13.0742 18.3438 12.7227 18.3438C12.4414 18.3438 12.1016 18.2734 11.7031 18.1328C11.3047 17.9922 10.9062 17.8164 10.5078 17.6055C9.61719 17.793 8.80859 18.1328 8.08203 18.625C7.35547 19.0938 6.73438 19.6562 6.21875 20.3125C5.72656 20.9688 5.33984 21.6836 5.05859 22.457C4.77734 23.2305 4.64844 23.9805 4.67188 24.707C4.69531 25.3867 4.80078 26.0664 4.98828 26.7461C5.17578 27.4492 5.46875 28.0703 5.86719 28.6094C6.26562 29.1484 6.78125 29.582 7.41406 29.9102C8.07031 30.2617 8.85547 30.4375 9.76953 30.4375C10.4492 30.4375 11.0938 30.2852 11.7031 29.9805C12.3359 29.6992 12.9219 29.3359 13.4609 28.8906C14 28.4453 14.4922 27.9531 14.9375 27.4141C15.3828 26.875 15.7695 26.3477 16.0977 25.832C16.4258 25.3164 16.6953 24.8477 16.9062 24.4258C17.1406 24.0039 17.3047 23.6992 17.3984 23.5117C17.4688 23.3711 17.5625 23.2656 17.6797 23.1953C17.8203 23.125 17.9492 23.1133 18.0664 23.1602C18.207 23.1836 18.3125 23.2656 18.3828 23.4062C18.4531 23.5469 18.4531 23.7578 18.3828 24.0391C18.1953 24.8828 17.8438 25.8203 17.3281 26.8516C16.8125 27.9062 16.1445 28.8906 15.3242 29.8047C14.5273 30.7188 13.5781 31.4805 12.4766 32.0898C11.3984 32.7227 10.1914 33.0391 8.85547 33.0391ZM25.2031 27.0625C24.3125 27.0625 23.5859 26.9219 23.0234 26.6406C22.4609 26.3594 22.0156 26.0195 21.6875 25.6211C21.3828 25.1992 21.1602 24.7539 21.0195 24.2852C20.9023 23.793 20.8438 23.3477 20.8438 22.9492C20.8438 22.2461 20.9023 21.5078 21.0195 20.7344C21.1367 19.9375 21.2773 19.2109 21.4414 18.5547C21.6055 17.875 21.7461 17.3008 21.8633 16.832C22.0039 16.3633 22.0977 16.0703 22.1445 15.9531C22.3555 15.2734 22.625 14.6875 22.9531 14.1953C23.3047 13.6797 23.7852 13.3281 24.3945 13.1406C24.6289 13.0938 24.875 13.0469 25.1328 13C25.3438 12.9766 25.5547 12.9648 25.7656 12.9648C26 12.9648 26.2109 13 26.3984 13.0703C25.7656 14.6875 25.2617 16.0352 24.8867 17.1133C24.5352 18.1914 24.2656 19.0703 24.0781 19.75C23.8672 20.5234 23.7383 21.1445 23.6914 21.6133C23.5742 22.668 23.668 23.4648 23.9727 24.0039C24.2773 24.543 24.8984 24.8125 25.8359 24.8125C26.4453 24.8125 27.0312 24.5898 27.5938 24.1445C28.1562 23.6758 28.6719 23.0781 29.1406 22.3516C29.0703 21.9766 29.0352 21.5898 29.0352 21.1914C29.0352 20.4414 29.0938 19.7148 29.2109 19.0117C29.3516 18.2852 29.5039 17.6172 29.668 17.0078C29.8555 16.375 30.043 15.8125 30.2305 15.3203C30.4414 14.8281 30.6172 14.4414 30.7578 14.1602C31.0156 13.5977 31.25 13.2578 31.4609 13.1406C31.6719 13 32.0117 12.918 32.4805 12.8945C32.668 12.8711 32.8203 12.8711 32.9375 12.8945C33.0781 12.8945 33.1953 12.9062 33.2891 12.9297C33.5703 13 33.7109 13.1406 33.7109 13.3516C33.7109 13.7266 33.6875 14.2891 33.6406 15.0391C33.5938 15.7891 33.4531 16.5625 33.2188 17.3594C33.0547 18.0156 32.8906 18.5781 32.7266 19.0469C32.5859 19.4922 32.4453 19.8789 32.3047 20.207C32.1641 20.5117 32.0234 20.7695 31.8828 20.9805C31.7422 21.168 31.6133 21.3438 31.4961 21.5078C31.543 22.2109 31.6016 22.7734 31.6719 23.1953C31.7422 23.6172 31.8242 23.9453 31.918 24.1797C32.0352 24.3906 32.1641 24.543 32.3047 24.6367C32.4688 24.707 32.6445 24.7422 32.832 24.7422C33.1602 24.7422 33.5469 24.5898 33.9922 24.2852C34.4375 23.957 34.8945 23.5586 35.3633 23.0898C35.8555 22.5977 36.3359 22.0703 36.8047 21.5078C37.2969 20.9219 37.7422 20.3711 38.1406 19.8555C38.5391 19.3398 38.8789 18.8945 39.1602 18.5195C39.4414 18.1211 39.6172 17.875 39.6875 17.7812C39.8516 17.5703 40.0039 17.4414 40.1445 17.3945C40.3086 17.3477 40.4375 17.3711 40.5312 17.4648C40.625 17.5352 40.6719 17.6641 40.6719 17.8516C40.6953 18.0156 40.6484 18.2031 40.5312 18.4141C40.0625 19.3047 39.4766 20.2539 38.7734 21.2617C38.0938 22.2461 37.3555 23.1602 36.5586 24.0039C35.7852 24.8477 35 25.5508 34.2031 26.1133C33.4062 26.6758 32.6562 26.957 31.9531 26.957C31.3203 26.957 30.8164 26.7461 30.4414 26.3242C30.0898 25.8789 29.7852 25.2461 29.5273 24.4258C28.9883 25.2695 28.3555 25.9258 27.6289 26.3945C26.9023 26.8398 26.0938 27.0625 25.2031 27.0625ZM36.3828 26.3242C36.2188 26.582 36.043 26.7461 35.8555 26.8164C35.6445 26.9102 35.4688 26.9219 35.3281 26.8516C35.1641 26.8047 35.0586 26.6875 35.0117 26.5C34.9648 26.3125 35.0117 26.0781 35.1523 25.7969C35.2227 25.6562 35.3867 25.3398 35.6445 24.8477C35.8789 24.3555 36.1719 23.7695 36.5234 23.0898C36.8516 22.3867 37.2148 21.6367 37.6133 20.8398C38.0117 20.0195 38.3867 19.2461 38.7383 18.5195C39.1133 17.793 39.4531 17.1484 39.7578 16.5859C40.0625 16 40.2852 15.5781 40.4258 15.3203C40.168 15.0859 39.9922 14.9219 39.8984 14.8281C39.8047 14.7109 39.7344 14.4766 39.6875 14.125C39.6406 13.8203 39.7109 13.4219 39.8984 12.9297C40.0859 12.4375 40.332 11.9688 40.6367 11.5234C40.9414 11.0547 41.2812 10.6562 41.6562 10.3281C42.0312 10 42.3945 9.83594 42.7461 9.83594C43.4023 9.83594 43.8594 10.0469 44.1172 10.4688C44.3984 10.8906 44.5625 11.3242 44.6094 11.7695C44.6562 12.0742 44.6328 12.4609 44.5391 12.9297C44.4453 13.3984 44.2695 13.8203 44.0117 14.1953C44.082 14.2422 44.1758 14.3008 44.293 14.3711C44.4102 14.418 44.5977 14.4414 44.8555 14.4414C45.2305 14.4414 45.4883 14.418 45.6289 14.3711C45.793 14.3242 46.0391 14.3008 46.3672 14.3008C46.7656 14.3008 47.0938 14.4062 47.3516 14.6172C47.6094 14.8047 47.8203 15.0508 47.9844 15.3555C48.1484 15.6367 48.2656 15.9531 48.3359 16.3047C48.4297 16.6328 48.4883 16.9375 48.5117 17.2188C48.582 17.8047 48.4297 18.4141 48.0547 19.0469C47.6797 19.6797 47.2227 20.3711 46.6836 21.1211C46.3555 21.5898 46.0273 22.1172 45.6992 22.7031C45.3711 23.2891 45.2305 23.8164 45.2773 24.2852C45.3242 24.5898 45.4062 24.8359 45.5234 25.0234C45.6406 25.2109 45.9688 25.3047 46.5078 25.3047C46.9062 25.3047 47.3398 25.1641 47.8086 24.8828C48.3008 24.5781 48.793 24.2031 49.2852 23.7578C49.8008 23.2891 50.3047 22.7852 50.7969 22.2461C51.2891 21.6836 51.7461 21.1445 52.168 20.6289C52.5898 20.0898 52.9414 19.6094 53.2227 19.1875C53.5273 18.7656 53.75 18.4609 53.8906 18.2734C54.0078 18.0859 54.1602 17.957 54.3477 17.8867C54.5352 17.8164 54.6992 17.8164 54.8398 17.8867C54.9805 17.957 55.0625 18.0977 55.0859 18.3086C55.1328 18.5195 55.0508 18.8008 54.8398 19.1523C54.6992 19.3867 54.4531 19.7617 54.1016 20.2773C53.7734 20.793 53.3633 21.3672 52.8711 22C52.4023 22.6328 51.875 23.2891 51.2891 23.9688C50.7031 24.625 50.082 25.2344 49.4258 25.7969C48.793 26.3359 48.1484 26.7812 47.4922 27.1328C46.8594 27.4844 46.25 27.6602 45.6641 27.6602C45.0547 27.6602 44.5508 27.543 44.1523 27.3086C43.7539 27.0742 43.4258 26.793 43.168 26.4648C42.9336 26.1133 42.7578 25.7383 42.6406 25.3398C42.5469 24.918 42.5117 24.5312 42.5352 24.1797C42.5586 23.8984 42.6289 23.6055 42.7461 23.3008C42.8867 22.9727 43.0391 22.6445 43.2031 22.3164C43.3906 21.9648 43.5781 21.625 43.7656 21.2969C43.9766 20.9453 44.1641 20.6055 44.3281 20.2773C44.7266 19.5977 45.043 19.0234 45.2773 18.5547C45.5352 18.0625 45.6641 17.6523 45.6641 17.3242C45.6641 17.1133 45.6172 16.9258 45.5234 16.7617C45.4297 16.5977 45.2773 16.5156 45.0664 16.5156C44.9258 16.5156 44.8203 16.5273 44.75 16.5508C44.7031 16.5508 44.6445 16.5508 44.5742 16.5508C44.5273 16.5508 44.4453 16.5625 44.3281 16.5859C44.2344 16.5859 44.082 16.5859 43.8711 16.5859C43.5664 16.5859 43.3086 16.5391 43.0977 16.4453C42.8867 16.3516 42.6875 16.2812 42.5 16.2344C42.4062 16.3984 42.1953 16.75 41.8672 17.2891C41.5391 17.8281 41.1523 18.4609 40.707 19.1875C40.2852 19.9141 39.8281 20.6758 39.3359 21.4727C38.8672 22.2695 38.4219 23.0195 38 23.7227C37.5781 24.4023 37.2266 24.9883 36.9453 25.4805C36.6406 25.9492 36.4531 26.2305 36.3828 26.3242ZM62.75 20.9102C62.5156 21.8008 62.1992 22.6328 61.8008 23.4062C61.4023 24.1797 60.9219 24.8477 60.3594 25.4102C59.8203 25.9727 59.1992 26.4062 58.4961 26.7109C57.8164 27.0391 57.0664 27.2031 56.2461 27.2031C55.2852 27.2031 54.5234 26.9922 53.9609 26.5703C53.4219 26.1719 53.0117 25.668 52.7305 25.0586C52.4727 24.4492 52.3203 23.7812 52.2734 23.0547C52.2031 22.3281 52.168 21.6484 52.168 21.0156C52.168 20.5703 52.2266 20.0781 52.3438 19.5391C52.4375 19 52.5781 18.4492 52.7656 17.8867C52.9531 17.3242 53.1875 16.7617 53.4688 16.1992C53.7734 15.6367 54.125 15.1211 54.5234 14.6523C54.6641 14.2539 54.875 13.9023 55.1562 13.5977C55.4609 13.293 55.8008 13.0469 56.1758 12.8594C56.5742 12.6484 56.9961 12.4961 57.4414 12.4023C57.8867 12.2852 58.3203 12.2266 58.7422 12.2266C58.8125 12.2266 58.8711 12.2383 58.918 12.2617C58.9883 12.2852 59.0586 12.3086 59.1289 12.332C59.4336 12.3555 59.8086 12.4727 60.2539 12.6836C60.7227 12.8945 61.168 13.2109 61.5898 13.6328C62.0352 14.0547 62.4102 14.5938 62.7148 15.25C63.0195 15.8828 63.1719 16.6562 63.1719 17.5703C63.1719 17.7578 63.1602 17.9922 63.1367 18.2734C63.1133 18.5312 63.0898 18.7539 63.0664 18.9414C63.6055 18.7305 64.168 18.4727 64.7539 18.168C65.3398 17.8633 65.9023 17.5469 66.4414 17.2188C67.0039 16.8672 67.5195 16.5156 67.9883 16.1641C68.457 15.8125 68.832 15.4961 69.1133 15.2148C69.3477 15.0039 69.5469 14.8867 69.7109 14.8633C69.875 14.8398 69.9922 14.8867 70.0625 15.0039C70.1328 15.1211 70.1445 15.2852 70.0977 15.4961C70.0508 15.707 69.9219 15.9414 69.7109 16.1992C69.5938 16.3398 69.2891 16.6211 68.7969 17.043C68.3281 17.4648 67.7656 17.9219 67.1094 18.4141C66.4531 18.9062 65.7383 19.3867 64.9648 19.8555C64.1914 20.3242 63.4531 20.6758 62.75 20.9102ZM56.8086 15.5664C56.7383 15.7773 56.7031 16 56.7031 16.2344C56.7031 16.6094 56.7266 17.0078 56.7734 17.4297C56.8203 17.8281 56.9375 18.1914 57.125 18.5195C57.3125 18.8477 57.6055 19.1289 58.0039 19.3633C58.4258 19.5742 59 19.6797 59.7266 19.6797C59.8438 19.6797 59.9609 19.6797 60.0781 19.6797C60.1953 19.6562 60.3125 19.6328 60.4297 19.6094C60.5 19.3047 60.5586 19.0352 60.6055 18.8008C60.6758 18.543 60.7109 18.3203 60.7109 18.1328C60.7578 17.6875 60.7578 17.2305 60.7109 16.7617C60.6641 16.293 60.5703 15.8711 60.4297 15.4961C60.3125 15.0977 60.1484 14.7812 59.9375 14.5469C59.75 14.2891 59.5156 14.1602 59.2344 14.1602C58.7891 14.1602 58.3555 14.2891 57.9336 14.5469C57.5352 14.7812 57.1602 15.1211 56.8086 15.5664ZM54.5586 21.7539C54.5586 22.1758 54.582 22.5977 54.6289 23.0195C54.6758 23.418 54.7695 23.7812 54.9102 24.1094C55.0508 24.4141 55.2383 24.6719 55.4727 24.8828C55.707 25.0703 56.0117 25.1641 56.3867 25.1641C56.8086 25.1641 57.1953 25.0703 57.5469 24.8828C57.8984 24.6719 58.2148 24.4141 58.4961 24.1094C58.7773 23.7812 59.0234 23.418 59.2344 23.0195C59.4688 22.5977 59.668 22.1641 59.832 21.7188C59.668 21.7422 59.5039 21.7656 59.3398 21.7891C59.1992 21.7891 59.0352 21.7891 58.8477 21.7891C57.957 21.7891 57.1836 21.5312 56.5273 21.0156C55.8945 20.4766 55.4023 19.7969 55.0508 18.9766C54.9102 19.4688 54.793 19.9492 54.6992 20.418C54.6055 20.8867 54.5586 21.332 54.5586 21.7539ZM71.4688 25.3047C71.6094 25.3984 71.7852 25.4453 71.9961 25.4453C72.2305 25.4453 72.4531 25.3984 72.6641 25.3047C72.8984 25.2109 73.1094 25.082 73.2969 24.918C73.5078 24.7539 73.6602 24.543 73.7539 24.2852C73.8477 24.0273 73.8477 23.6641 73.7539 23.1953C73.6602 22.7031 73.5078 22.1875 73.2969 21.6484C73.1094 21.0859 72.8984 20.5234 72.6641 19.9609C72.4297 19.3984 72.2305 18.8828 72.0664 18.4141C71.9258 18.0625 71.8086 17.7344 71.7148 17.4297C71.6211 17.1719 71.5273 16.9258 71.4336 16.6914C71.3633 16.4336 71.3047 16.2578 71.2578 16.1641C71.1406 16.3516 70.9297 16.6562 70.625 17.0781C70.3438 17.5 70.0273 17.9453 69.6758 18.4141C69.3477 18.8594 69.0312 19.2812 68.7266 19.6797C68.4219 20.0547 68.2109 20.3125 68.0938 20.4531C67.9062 20.6641 67.7188 20.793 67.5312 20.8398C67.3672 20.8633 67.2266 20.8281 67.1094 20.7344C66.9922 20.6172 66.9219 20.4648 66.8984 20.2773C66.8984 20.0664 66.9922 19.8203 67.1797 19.5391C67.3203 19.3516 67.5312 19.0586 67.8125 18.6602C68.0938 18.2383 68.375 17.8164 68.6562 17.3945C68.9375 16.9492 69.1953 16.5625 69.4297 16.2344C69.6641 15.8828 69.793 15.6719 69.8164 15.6016C69.8633 15.4141 69.793 15.168 69.6055 14.8633C69.4414 14.5586 69.418 14.207 69.5352 13.8086C69.6289 13.4805 69.8398 13.1055 70.168 12.6836C70.4961 12.2383 70.8828 11.8398 71.3281 11.4883C71.7734 11.1367 72.2305 10.8789 72.6992 10.7148C73.168 10.5273 73.5898 10.5273 73.9648 10.7148C74.2695 10.9023 74.5156 11.1133 74.7031 11.3477C74.8906 11.5586 74.9609 11.7812 74.9141 12.0156C74.8672 12.1328 74.7969 12.2852 74.7031 12.4727C74.6094 12.6602 74.4688 12.8945 74.2812 13.1758C74.0938 13.4336 73.8242 13.7734 73.4727 14.1953C73.543 14.7344 73.6367 15.2266 73.7539 15.6719C73.8945 16.1172 74.0234 16.5039 74.1406 16.832C74.2812 17.2305 74.4336 17.5938 74.5977 17.9219C74.8086 18.3438 75.0312 18.7773 75.2656 19.2227C75.5 19.668 75.7109 20.1133 75.8984 20.5586C76.0859 20.9805 76.2383 21.3789 76.3555 21.7539C76.4727 22.1289 76.5078 22.4453 76.4609 22.7031C76.3906 23.1016 76.1797 23.582 75.8281 24.1445C75.5 24.707 75.0781 25.2578 74.5625 25.7969C74.0703 26.3125 73.4961 26.7578 72.8398 27.1328C72.207 27.5078 71.5391 27.6953 70.8359 27.6953C70.3438 27.6953 69.8633 27.543 69.3945 27.2383C68.9492 26.9336 68.5625 26.582 68.2344 26.1836C67.9297 25.7617 67.6953 25.3516 67.5312 24.9531C67.3906 24.5547 67.3789 24.25 67.4961 24.0391C67.6367 23.7578 67.7656 23.5352 67.8828 23.3711C68 23.207 68.1758 23.0195 68.4102 22.8086C68.5039 22.7383 68.6211 22.6562 68.7617 22.5625C68.8789 22.4922 69.043 22.4219 69.2539 22.3516C69.4648 22.2812 69.7109 22.1992 69.9922 22.1055C70.2266 22.832 70.4375 23.4062 70.625 23.8281C70.8125 24.2266 70.9648 24.543 71.082 24.7773C71.2227 25.0352 71.3516 25.2109 71.4688 25.3047ZM86.9023 5.79297C86.832 6.05078 86.6914 6.30859 86.4805 6.56641C86.293 6.80078 86.0703 7 85.8125 7.16406C85.5781 7.30469 85.332 7.39844 85.0742 7.44531C84.8164 7.49219 84.6055 7.44531 84.4414 7.30469C83.9492 6.92969 83.6914 6.53125 83.668 6.10938C83.6445 5.66406 83.75 5.25391 83.9844 4.87891C84.2188 4.48047 84.5117 4.15234 84.8633 3.89453C85.2148 3.61328 85.5195 3.44922 85.7773 3.40234C86.0352 3.35547 86.2461 3.41406 86.4102 3.57812C86.5977 3.71875 86.7383 3.91797 86.832 4.17578C86.9258 4.41016 86.9727 4.67969 86.9727 4.98438C86.9961 5.28906 86.9727 5.55859 86.9023 5.79297ZM82.0508 13.2812C82.168 13.1406 82.3906 13.0234 82.7188 12.9297C83.0469 12.8359 83.3867 12.7656 83.7383 12.7188C84.0898 12.6484 84.4062 12.6133 84.6875 12.6133C84.9922 12.5898 85.168 12.5898 85.2148 12.6133C85.2383 12.6367 85.1797 12.8828 85.0391 13.3516C84.8984 13.8203 84.7227 14.3711 84.5117 15.0039C84.3008 15.6367 84.0781 16.293 83.8438 16.9727C83.6094 17.6289 83.4336 18.168 83.3164 18.5898C83.1992 19.0117 83.0586 19.4922 82.8945 20.0312C82.7305 20.5469 82.5781 21.0625 82.4375 21.5781C82.3203 22.0703 82.2383 22.5391 82.1914 22.9844C82.1445 23.4297 82.1797 23.7695 82.2969 24.0039C82.4141 24.2852 82.543 24.4844 82.6836 24.6016C82.8242 24.6953 82.9766 24.7422 83.1406 24.7422C83.6094 24.7422 84.1953 24.4844 84.8984 23.9688C85.625 23.4531 86.3516 22.8438 87.0781 22.1406C87.8281 21.4141 88.5195 20.6875 89.1523 19.9609C89.7852 19.2109 90.2539 18.6133 90.5586 18.168C90.7461 17.9336 90.9336 17.7812 91.1211 17.7109C91.332 17.6406 91.4961 17.6523 91.6133 17.7461C91.7539 17.8398 91.8242 17.9922 91.8242 18.2031C91.8477 18.4141 91.7773 18.6602 91.6133 18.9414C91.2383 19.5977 90.6875 20.3828 89.9609 21.2969C89.2344 22.1875 88.4609 23.0547 87.6406 23.8984C86.8203 24.7188 86.0117 25.4219 85.2148 26.0078C84.4414 26.5938 83.8086 26.8984 83.3164 26.9219C82.918 26.9453 82.5195 26.875 82.1211 26.7109C81.7461 26.5703 81.3945 26.3711 81.0664 26.1133C80.7617 25.832 80.5039 25.5156 80.293 25.1641C80.082 24.7891 79.9648 24.4023 79.9414 24.0039C79.8711 23.418 79.8711 22.6211 79.9414 21.6133C80.0117 20.582 80.1406 19.5391 80.3281 18.4844C80.5156 17.4062 80.75 16.3867 81.0312 15.4258C81.3359 14.4648 81.6758 13.75 82.0508 13.2812ZM107.082 19.5039C106.754 19.9727 106.332 20.5586 105.816 21.2617C105.301 21.9414 104.762 22.6328 104.199 23.3359C103.66 24.0156 103.121 24.6484 102.582 25.2344C102.066 25.7969 101.633 26.1953 101.281 26.4297C101.047 26.5703 100.777 26.6875 100.473 26.7812C100.168 26.875 99.8516 26.9336 99.5234 26.957C99.2188 26.9805 98.9258 26.957 98.6445 26.8867C98.3633 26.8398 98.1172 26.7461 97.9062 26.6055C97.6953 26.4414 97.5195 26.207 97.3789 25.9023C97.2617 25.6445 97.1445 25.3047 97.0273 24.8828C96.9336 24.4609 96.8984 23.9336 96.9219 23.3008C96.3594 24.2383 95.7383 24.9648 95.0586 25.4805C94.3789 25.9727 93.7344 26.3359 93.125 26.5703C92.4219 26.8281 91.7188 26.9805 91.0156 27.0273C90.6875 27.0273 90.3359 26.9102 89.9609 26.6758C89.5859 26.4648 89.2695 26.125 89.0117 25.6562C88.7539 25.1641 88.5898 24.543 88.5195 23.793C88.4492 23.0195 88.543 22.1055 88.8008 21.0508C89.1289 19.6211 89.6445 18.3203 90.3477 17.1484C91.0742 15.9766 91.8594 14.9805 92.7031 14.1602C93.5469 13.3164 94.3789 12.6836 95.1992 12.2617C96.0195 11.8398 96.6992 11.6523 97.2383 11.6992C97.8711 11.8164 98.3867 12.0039 98.7852 12.2617C99.1133 12.4961 99.3242 12.8477 99.418 13.3164C99.5352 13.7617 99.3477 14.3594 98.8555 15.1094C99.1836 15.0391 99.4531 14.9922 99.6641 14.9688C99.8984 14.9453 100.074 14.9336 100.191 14.9336C100.332 14.9336 100.426 14.9453 100.473 14.9688C100.496 15.0156 100.508 15.1211 100.508 15.2852C100.508 15.4258 100.473 15.6953 100.402 16.0938C100.332 16.4922 100.227 17.0312 100.086 17.7109C99.9453 18.3906 99.7578 19.2695 99.5234 20.3477C99.4766 20.5586 99.4297 20.7578 99.3828 20.9453C99.3594 21.1094 99.3242 21.2852 99.2773 21.4727C99.2539 21.6367 99.2188 21.8359 99.1719 22.0703C99.125 22.3047 99.0664 22.5977 98.9961 22.9492C98.9727 23.1602 98.9609 23.3945 98.9609 23.6523C98.9844 23.8867 99.0312 24.1094 99.1016 24.3203C99.1719 24.5312 99.2773 24.707 99.418 24.8477C99.582 24.9648 99.8047 25.0234 100.086 25.0234C100.32 25.0234 100.625 24.8828 101 24.6016C101.375 24.2969 101.773 23.9219 102.195 23.4766C102.617 23.0078 103.051 22.5039 103.496 21.9648C103.965 21.4023 104.398 20.8633 104.797 20.3477C105.195 19.832 105.547 19.375 105.852 18.9766C106.18 18.5781 106.414 18.2852 106.555 18.0977C106.742 17.8867 106.93 17.7695 107.117 17.7461C107.305 17.6992 107.445 17.7461 107.539 17.8867C107.633 18.0273 107.645 18.2383 107.574 18.5195C107.527 18.8008 107.363 19.1289 107.082 19.5039ZM96.7812 21.0508C96.8984 20.582 97.0391 20.0312 97.2031 19.3984C97.3672 18.7656 97.5078 18.1562 97.625 17.5703C97.7422 16.9844 97.8242 16.5039 97.8711 16.1289C97.9414 15.7305 97.9297 15.543 97.8359 15.5664C97.7188 15.5898 97.5898 15.625 97.4492 15.6719C97.332 15.7188 97.1797 15.7539 96.9922 15.7773C96.8047 15.8008 96.6172 15.8359 96.4297 15.8828C96.6172 15.5078 96.7227 15.2031 96.7461 14.9688C96.793 14.7109 96.8047 14.5117 96.7812 14.3711C96.7578 14.207 96.7109 14.0781 96.6406 13.9844C96.3828 13.7734 95.9258 13.9492 95.2695 14.5117C94.6367 15.0508 93.8984 16.0586 93.0547 17.5352C92.7031 18.1445 92.4219 18.8008 92.2109 19.5039C92 20.1836 91.8477 20.8281 91.7539 21.4375C91.6836 22.0469 91.6719 22.5859 91.7188 23.0547C91.7656 23.5 91.8594 23.793 92 23.9336C92.2578 24.1914 92.5508 24.3203 92.8789 24.3203C93.207 24.2969 93.5352 24.2031 93.8633 24.0391C94.2148 23.8516 94.5547 23.6172 94.8828 23.3359C95.2344 23.0547 95.5391 22.7617 95.7969 22.457C96.0781 22.1523 96.3008 21.8711 96.4648 21.6133C96.6523 21.3555 96.7578 21.168 96.7812 21.0508ZM104.199 25.9375C105.23 21.6016 106.051 18.1211 106.66 15.4961C107.293 12.8711 107.773 10.8672 108.102 9.48438C108.477 7.84375 108.734 6.70703 108.875 6.07422C108.945 5.62891 109.004 5.19531 109.051 4.77344C109.098 4.39844 109.121 4.01172 109.121 3.61328C109.121 3.21484 109.086 2.85156 109.016 2.52344C109.203 2.40625 109.402 2.3125 109.613 2.24219C109.848 2.17188 110.07 2.11328 110.281 2.06641C110.539 1.99609 110.797 1.9375 111.055 1.89062C111.312 1.84375 111.547 1.82031 111.758 1.82031C111.945 1.82031 112.121 1.84375 112.285 1.89062C112.449 1.91406 112.555 1.98437 112.602 2.10156C112.742 2.21875 112.801 2.45312 112.777 2.80469C112.777 3.15625 112.754 3.51953 112.707 3.89453C112.613 4.33984 112.508 4.82031 112.391 5.33594C112.109 6.34375 111.723 7.79688 111.23 9.69531C110.809 11.3125 110.234 13.5156 109.508 16.3047C108.805 19.0938 107.914 22.6094 106.836 26.8516C106.719 26.9688 106.578 27.0508 106.414 27.0977C106.25 27.1445 106.098 27.168 105.957 27.168C105.793 27.168 105.617 27.1562 105.43 27.1328C105.266 27.0859 105.102 27.0156 104.938 26.9219C104.797 26.8281 104.656 26.6992 104.516 26.5352C104.375 26.3945 104.27 26.1953 104.199 25.9375Z" fill="black"/>
</svg>
