<svg width="97" height="22" viewBox="0 0 97 22" fill="none" xmlns="http://www.w3.org/2000/svg">
<g clip-path="url(#clip0_30_303)">
<path d="M81.3312 21.4845H86.066V12.8662C86.066 10.8997 87.2193 9.50848 88.9197 9.50848C90.5592 9.50848 91.4086 10.6575 91.4086 12.2909V21.4845H96.1434V11.3842C96.1434 7.96586 94.0799 5.54675 90.74 5.54675C88.6157 5.54675 87.1281 6.45352 86.0052 8.11725H85.914V6.00093H81.3312V21.4845ZM72.0424 5.57703C67.0948 5.57703 63.7853 9.11486 63.7853 13.773C63.7853 18.4009 67.0932 21.969 72.0424 21.969C76.9915 21.969 80.2995 18.4009 80.2995 13.773C80.2995 9.11645 76.9915 5.57703 72.0424 5.57703ZM72.012 18.4901C69.7662 18.4901 68.5825 16.616 68.5825 13.773C68.5825 10.8997 69.7662 9.05589 72.012 9.05589C74.2578 9.05589 75.5023 10.9013 75.5023 13.773C75.5039 16.616 74.2594 18.4901 72.012 18.4901ZM50.3087 21.4845H63.6045V17.765H56.0769V17.6742L63.2702 9.6296V6.00093H50.3087V9.72043H57.5933V9.81127L50.3087 17.9164V21.4845ZM44.2367 21.4845H49.0019V6.00093H44.2367V21.4845ZM33.1883 21.4845H37.9231V14.3786C37.9231 11.1419 39.8666 9.72043 42.8403 10.1141H42.9314V6.03121C42.6883 5.94037 42.4148 5.9101 41.9605 5.9101C40.1081 5.9101 38.8637 6.75631 37.8015 8.57143H37.7104V6.00093H33.1883V21.4845ZM24.4753 18.522C22.3815 18.522 21.1066 17.161 20.8635 15.075H32.0638C32.0942 11.7475 31.2144 9.08617 29.3621 7.42403C28.0568 6.21448 26.3261 5.54835 24.141 5.54835C19.467 5.54835 16.2183 9.08617 16.2183 13.714C16.2183 18.3706 19.3151 21.9403 24.445 21.9403C26.3885 21.9403 27.9353 21.4255 29.2101 20.5491C30.5762 19.612 31.5471 18.2511 31.8207 16.8901H27.2682C26.814 17.9164 25.8718 18.522 24.4753 18.522ZM24.2338 8.93478C25.9038 8.93478 27.0571 10.1746 27.2394 11.9897H20.8955C21.2586 10.1443 22.2599 8.93478 24.2338 8.93478ZM44.2367 0.496582H49.0019V4.70054H44.2367V0.496582Z" fill="#FFD8DC"/>
<path d="M0 6.00073L5.89289 21.2931C5.93768 21.4094 6.04965 21.4859 6.17442 21.4859H10.9556C10.8308 21.4859 10.7189 21.4094 10.6741 21.2931L4.78118 6.00073H0Z" fill="#FFD8DC"/>
<path d="M17.13 6.00073L11.2371 21.2931C11.1924 21.4094 11.0804 21.4859 10.9556 21.4859H6.17444C6.29921 21.4859 6.41118 21.4094 6.45597 21.2931L12.3489 6.00073H17.13Z" fill="#FFD8DC"/>
</g>
<defs>
<clipPath id="clip0_30_303">
<rect width="96.145" height="21.4724" fill="white" transform="translate(0 0.496582)"/>
</clipPath>
</defs>
</svg>
