<svg width="50" height="31" viewBox="0 0 50 31" fill="none" xmlns="http://www.w3.org/2000/svg">
<g clip-path="url(#clip0_30_319)">
<path d="M31.6396 3.2583H18.2948V27.2077H31.6396V3.2583Z" fill="#FF5F00"/>
<path d="M19.1419 15.2327C19.1419 10.5782 21.3025 6.13531 24.9458 3.258C18.337 -1.94656 8.76261 -0.804096 3.5518 5.83912C-1.65901 12.44 -0.515171 22.0029 6.13603 27.2074C11.6858 31.5657 19.4384 31.5657 24.9881 27.2074C21.3025 24.3301 19.1419 19.8872 19.1419 15.2327Z" fill="#EB001B"/>
<path d="M49.6444 15.233C49.6444 23.6533 42.8238 30.4658 34.3933 30.4658C30.9617 30.4658 27.6573 29.3233 24.9884 27.2077C31.5972 22.0031 32.741 12.4403 27.5302 5.79705C26.7677 4.86615 25.9204 3.97757 24.9884 3.25824C31.5972 -1.94632 41.2139 -0.803852 46.3824 5.83936C48.5006 8.50511 49.6444 11.8056 49.6444 15.233Z" fill="#F79E1B"/>
<path d="M48.204 24.669V24.1613H48.4158V24.0767H47.9074V24.1613H48.1193V24.669H48.204ZM49.1784 24.669V24.0767H49.0089L48.8395 24.4998L48.67 24.0767H48.5005V24.669H48.6276V24.2036L48.7971 24.5844H48.9242L49.0936 24.2036V24.669H49.1784Z" fill="#F79E1B"/>
</g>
<defs>
<clipPath id="clip0_30_319">
<rect width="49.3544" height="30.4657" fill="white" transform="translate(0.289978)"/>
</clipPath>
</defs>
</svg>
