<svg width="97" height="26" viewBox="0 0 97 26" fill="none" xmlns="http://www.w3.org/2000/svg">
<path d="M84.0213 6.57301L81.9695 19.4325C81.9618 19.4798 81.9646 19.5281 81.9776 19.5741C81.9906 19.6202 82.0136 19.6628 82.0448 19.6991C82.0761 19.7353 82.115 19.7643 82.1587 19.784C82.2024 19.8037 82.2499 19.8137 82.2978 19.8131H84.726C84.8117 19.8139 84.8948 19.7839 84.9603 19.7288C85.0258 19.6737 85.0693 19.597 85.083 19.5126L87.1347 6.65311C87.1424 6.60589 87.1397 6.55756 87.1266 6.51152C87.1136 6.46547 87.0907 6.42283 87.0594 6.38657C87.0281 6.35031 86.9893 6.32131 86.9456 6.30161C86.9019 6.28191 86.8544 6.27199 86.8064 6.27253H84.3782C84.2923 6.27083 84.2087 6.30039 84.143 6.35568C84.0773 6.41098 84.034 6.48823 84.0213 6.57301ZM81.4284 10.3257H79.1245C79.039 10.3249 78.9559 10.3547 78.8905 10.4097C78.8251 10.4648 78.7817 10.5414 78.7681 10.6257L78.6919 11.0991C78.6919 11.0991 76.9025 9.16359 73.7343 10.4716C71.9167 11.2205 71.0443 12.7679 70.673 13.9014C70.673 13.9014 69.4947 17.3465 72.1596 19.2428C72.1596 19.2428 74.6308 21.0666 77.4134 19.1305L77.3653 19.4325C77.3541 19.5035 77.3666 19.5761 77.4008 19.6393C77.435 19.7025 77.489 19.7528 77.5545 19.7825C77.598 19.8029 77.6455 19.8131 77.6936 19.8131H79.999C80.085 19.8148 80.1686 19.7853 80.2343 19.73C80.3 19.6747 80.3432 19.5974 80.356 19.5126L81.7583 10.7063C81.7661 10.6591 81.7634 10.6108 81.7502 10.5648C81.737 10.5189 81.7138 10.4764 81.6821 10.4405C81.6509 10.4039 81.6119 10.3747 81.5681 10.3547C81.5243 10.3348 81.4766 10.3252 81.4284 10.3257ZM78.0383 15.1926C77.9484 15.8079 77.6366 16.3693 77.1612 16.7716C76.6839 17.1753 76.0763 17.3932 75.4506 17.3853C75.2052 17.3881 74.9608 17.3527 74.7264 17.2802C73.7317 16.9639 73.1641 16.0181 73.3272 14.9926C73.4178 14.3777 73.73 13.8167 74.2053 13.4147C74.6822 13.0108 75.2893 12.7922 75.9149 12.799C76.1604 12.7964 76.4047 12.8322 76.6391 12.9051C77.6399 13.2193 78.205 14.1667 78.0409 15.1931H78.0383V15.1926ZM65.7358 15.436C66.9852 15.436 68.1937 14.9932 69.1428 14.1881C70.09 13.3858 70.7172 12.2711 70.9103 11.0466C71.3138 8.49937 69.3044 6.2761 66.4559 6.2761H61.867C61.7814 6.27528 61.6983 6.30517 61.6329 6.36031C61.5674 6.41546 61.524 6.49221 61.5106 6.57658L59.4583 19.4361C59.4471 19.5071 59.4596 19.5797 59.4938 19.6429C59.528 19.7061 59.582 19.7564 59.6475 19.7861C59.6915 19.8065 59.7385 19.8167 59.7866 19.8167H62.2163C62.302 19.8175 62.385 19.7876 62.4505 19.7325C62.5159 19.6773 62.5593 19.6006 62.5728 19.5162L63.1752 15.74C63.1879 15.6551 63.2311 15.5778 63.2968 15.5224C63.3625 15.467 63.4462 15.4374 63.5322 15.439L65.7358 15.436ZM67.7682 10.9308C67.6183 11.8725 66.8829 12.5658 65.476 12.5658H63.6774L64.2236 9.14114H65.99C67.4444 9.14369 67.918 9.99311 67.7682 10.9333V10.9308Z" fill="#94C9FF"/>
<path d="M56.69 10.5441L53.911 15.1891L52.5005 10.5783C52.4785 10.5047 52.433 10.4403 52.371 10.3947C52.309 10.3492 52.2339 10.325 52.1569 10.3257H49.6489C49.584 10.3249 49.521 10.3474 49.4715 10.3892C49.422 10.431 49.3893 10.4893 49.3794 10.5533C49.3733 10.5957 49.3777 10.639 49.3922 10.6793L51.9196 18.4459L49.6336 22.1058C49.6142 22.1359 49.6011 22.1697 49.5953 22.205C49.5894 22.2403 49.5908 22.2765 49.5994 22.3113C49.608 22.346 49.6237 22.3787 49.6454 22.4072C49.6671 22.4357 49.6944 22.4595 49.7256 22.4772C49.7674 22.5011 49.815 22.5135 49.8632 22.5129H52.5645C52.6415 22.5132 52.7174 22.4936 52.7847 22.456C52.852 22.4185 52.9084 22.3643 52.9485 22.2986L60.008 10.7349C60.0336 10.6946 60.0477 10.6481 60.0486 10.6005C60.0496 10.5528 60.0375 10.5058 60.0136 10.4645C59.9898 10.4231 59.9553 10.3888 59.9136 10.3652C59.872 10.3416 59.8247 10.3296 59.7769 10.3303H57.0766C56.9992 10.3296 56.9228 10.3489 56.8551 10.3864C56.7873 10.4239 56.7305 10.4782 56.69 10.5441ZM48.2272 10.3257H45.9212C45.8355 10.3249 45.7522 10.3549 45.6867 10.4101C45.6212 10.4654 45.5778 10.5422 45.5643 10.6267L45.4896 11.0997C45.4896 11.0997 43.6987 9.16412 40.5305 10.4722C38.7134 11.2211 37.8405 12.7684 37.4707 13.9019C37.4707 13.9019 36.2914 17.347 38.9558 19.2433C38.9558 19.2433 41.4275 21.0671 44.2101 19.1311L44.162 19.4331C44.1507 19.504 44.1631 19.5767 44.1973 19.64C44.2315 19.7032 44.2856 19.7535 44.3512 19.783C44.3947 19.8034 44.4423 19.8136 44.4903 19.8136H46.7958C46.8813 19.8143 46.9643 19.7843 47.0297 19.7292C47.0951 19.6741 47.1385 19.5975 47.1522 19.5132L48.555 10.7068C48.5664 10.6358 48.5541 10.563 48.5199 10.4996C48.4857 10.4363 48.4315 10.3859 48.3658 10.3564C48.3222 10.3363 48.2752 10.3259 48.2272 10.3257ZM44.8365 15.1937C44.7458 15.8082 44.4338 16.3687 43.959 16.7706C43.4819 17.1742 42.8749 17.3927 42.2493 17.3858C42.0043 17.3885 41.7603 17.3531 41.5262 17.2807C40.532 16.9644 39.9649 16.0186 40.128 14.9927C40.2189 14.3763 40.5322 13.8143 41.0092 13.4122C41.4879 13.0083 42.097 12.7907 42.7239 12.7995C42.9694 12.7969 43.2144 12.8327 43.4486 12.9056C44.4392 13.2199 45.0033 14.1667 44.8396 15.1937H44.8365ZM32.5346 15.4365C33.7819 15.4359 34.9883 14.993 35.9385 14.1871C36.8849 13.3848 37.5113 12.2705 37.7039 11.0466C38.1079 8.49989 36.0981 6.27663 33.2506 6.27663H28.6612C28.5755 6.27577 28.4924 6.30557 28.4269 6.3606C28.3615 6.41564 28.3179 6.49228 28.3042 6.5766L26.2586 19.4326C26.2471 19.5036 26.2595 19.5764 26.2937 19.6398C26.3279 19.7031 26.382 19.7535 26.4478 19.783C26.4913 19.8029 26.5388 19.8136 26.5869 19.8136H29.0151C29.1009 19.8145 29.1841 19.7845 29.2496 19.7293C29.3151 19.674 29.3586 19.5972 29.372 19.5127L29.9735 15.7365C29.9862 15.6517 30.0295 15.5744 30.0952 15.5191C30.1609 15.4639 30.2445 15.4343 30.3304 15.436L32.5346 15.4365ZM34.5669 10.9308C34.4171 11.8725 33.6822 12.5658 32.2753 12.5658H30.4767L31.0218 9.14116H32.7883C34.2432 9.14371 34.7163 9.99363 34.5669 10.9333V10.9308Z" fill="#005BFF"/>
<path d="M16.8369 6.9371C16.8916 4.09756 14.5437 1.91919 11.3152 1.91919H4.6372C4.48158 1.91912 4.33105 1.97448 4.21272 2.07531C4.0944 2.17613 4.01605 2.3158 3.9918 2.46914L1.31611 19.1477C1.30413 19.2233 1.30872 19.3006 1.32956 19.3742C1.3504 19.4478 1.38699 19.5161 1.4368 19.5743C1.48662 19.6325 1.54849 19.6792 1.61815 19.7112C1.6878 19.7433 1.76359 19.7599 1.8403 19.7599H5.79656L5.17827 23.6218C5.1663 23.6974 5.17089 23.7746 5.19173 23.8483C5.21256 23.9219 5.24915 23.9902 5.29897 24.0484C5.34879 24.1065 5.41066 24.1533 5.48031 24.1853C5.54997 24.2173 5.62576 24.2339 5.70247 24.234H8.92537C9.08084 24.234 9.21943 24.1784 9.33808 24.0779C9.4557 23.9769 9.47513 23.8376 9.49968 23.684L10.4458 18.1315C10.4698 17.9784 10.5481 17.7795 10.6662 17.6785C10.7843 17.5774 10.8876 17.5223 11.0436 17.5223H13.0156C16.1777 17.5223 18.86 15.2802 19.3505 12.1621C19.6977 9.94906 18.7465 7.93547 16.8369 6.9371Z" fill="#005BFF"/>
<path d="M6.65268 13.6091L5.66719 19.8422L5.04839 23.7521C5.03649 23.8276 5.04115 23.9049 5.06206 23.9785C5.08296 24.0521 5.11961 24.1203 5.16947 24.1785C5.21934 24.2366 5.28124 24.2833 5.35092 24.3153C5.4206 24.3472 5.49639 24.3638 5.57309 24.3637H8.98419C9.13967 24.3637 9.29001 24.3082 9.40814 24.2074C9.52628 24.1066 9.60444 23.967 9.62857 23.8138L10.5276 18.1311C10.5519 17.9779 10.6301 17.8383 10.7484 17.7375C10.8666 17.6367 11.017 17.5812 11.1725 17.5812H13.1803C16.3424 17.5812 19.0247 15.2804 19.5156 12.1623C19.8634 9.94925 18.7465 7.93515 16.8369 6.93677C16.8318 7.17246 16.8113 7.40764 16.775 7.64078C16.2846 10.7578 13.6012 13.0592 10.4402 13.0592H7.29756C7.14199 13.0593 6.99157 13.1149 6.87336 13.2158C6.75515 13.3167 6.6769 13.4558 6.65268 13.6091Z" fill="#94C9FF"/>
<path d="M5.66666 19.842H1.69812C1.62143 19.842 1.54566 19.8254 1.47602 19.7934C1.40638 19.7613 1.34454 19.7146 1.29476 19.6564C1.24498 19.5982 1.20844 19.5299 1.18767 19.4563C1.1669 19.3827 1.16238 19.3054 1.17444 19.2299L3.85013 2.30386C3.87437 2.1506 3.95264 2.01101 4.07086 1.91019C4.18908 1.80937 4.33949 1.75395 4.49502 1.75391H11.3152C14.5437 1.75391 16.8916 4.09757 16.8369 6.93659C16.0334 6.51622 15.0894 6.27594 14.0553 6.27594H8.36946C8.21384 6.27587 8.06331 6.33123 7.94498 6.43206C7.82666 6.53288 7.74831 6.67255 7.72406 6.82589L6.65317 13.6089L5.66615 19.842H5.66666Z" fill="#005BFF"/>
</svg>
