<svg width="39" height="35" viewBox="0 0 39 35" fill="none" xmlns="http://www.w3.org/2000/svg">
<path fill-rule="evenodd" clip-rule="evenodd" d="M3.18456 4.16475C5.13719 2.01994 7.92519 0.84375 11.1975 0.84375C14.1803 0.84375 17.3654 2.25312 19.5 5.00781C21.6192 2.25312 24.7916 0.84375 27.8025 0.84375C31.0671 0.84375 33.85 2.01481 35.8078 4.1545C37.745 6.27625 38.7188 9.18213 38.7188 12.4083C38.7188 17.9561 35.8667 22.4226 32.2561 25.8948C28.6558 29.3592 24.133 32.0012 20.3841 33.941C20.1095 34.083 19.8047 34.1567 19.4955 34.1558C19.1864 34.1549 18.882 34.0795 18.6082 33.9359C14.8593 31.9756 10.3365 29.3541 6.73619 25.9076C3.12563 22.4456 0.28125 17.9946 0.28125 12.4083C0.28125 9.19238 1.24988 6.2865 3.18456 4.16475ZM6.02638 6.75287C4.86044 8.03412 4.125 9.94831 4.125 12.4083C4.125 16.5698 6.216 20.0856 9.39606 23.1298C12.3327 25.946 16.0586 28.2164 19.5051 30.0614C22.9261 28.242 26.6545 25.9511 29.5937 23.1247C32.7789 20.0599 34.875 16.5262 34.875 12.4083C34.875 9.94063 34.137 8.02644 32.9685 6.74519C31.8205 5.49213 30.1087 4.6875 27.8025 4.6875C25.3015 4.6875 22.4392 6.29419 21.3271 9.67925C21.2013 10.0647 20.9568 10.4005 20.6287 10.6386C20.3005 10.8767 19.9054 11.0049 19.5 11.0049C19.0946 11.0049 18.6995 10.8767 18.3713 10.6386C18.0432 10.4005 17.7987 10.0647 17.6729 9.67925C16.5634 6.29675 13.6703 4.6875 11.1975 4.6875C8.88356 4.6875 7.17438 5.49213 6.02638 6.75287Z" fill="#ACACAC"/>
</svg>
