<svg width="39" height="34" viewBox="0 0 39 34" fill="none" xmlns="http://www.w3.org/2000/svg">
<path fill-rule="evenodd" clip-rule="evenodd" d="M3.18468 3.66475C5.13731 1.51994 7.92531 0.34375 11.1976 0.34375C14.1804 0.34375 17.3656 1.75312 19.5001 4.50781C21.6193 1.75312 24.7917 0.34375 27.8026 0.34375C31.0672 0.34375 33.8501 1.51481 35.8079 3.6545C37.7451 5.77625 38.7189 8.68213 38.7189 11.9083C38.7189 17.4561 35.8668 21.9226 32.2562 25.3948C28.6559 28.8592 24.1331 31.5012 20.3842 33.441C20.1096 33.583 19.8048 33.6567 19.4957 33.6558C19.1865 33.6549 18.8821 33.5795 18.6084 33.4359C14.8594 31.4756 10.3366 28.8541 6.73631 25.4076C3.12575 21.9456 0.281372 17.4946 0.281372 11.9083C0.281372 8.69238 1.25 5.7865 3.18468 3.66475ZM6.0265 6.25287C4.86056 7.53412 4.12512 9.44831 4.12512 11.9083C4.12512 16.0698 6.21612 19.5856 9.39618 22.6298C12.3328 25.446 16.0587 27.7164 19.5052 29.5614C22.9262 27.742 26.6546 25.4511 29.5938 22.6247C32.779 19.5599 34.8751 16.0262 34.8751 11.9083C34.8751 9.44063 34.1371 7.52644 32.9686 6.24519C31.8206 4.99213 30.1089 4.1875 27.8026 4.1875C25.3016 4.1875 22.4393 5.79419 21.3272 9.17925C21.2014 9.56469 20.957 9.90049 20.6288 10.1386C20.3006 10.3767 19.9056 10.5049 19.5001 10.5049C19.0947 10.5049 18.6996 10.3767 18.3715 10.1386C18.0433 9.90049 17.7988 9.56469 17.6731 9.17925C16.5635 5.79675 13.6704 4.1875 11.1976 4.1875C8.88369 4.1875 7.1745 4.99213 6.0265 6.25287Z" fill="#ACACAC"/>
</svg>
