<svg width="15" height="21" viewBox="0 0 15 21" fill="none" xmlns="http://www.w3.org/2000/svg">
<path d="M0.536006 20.6275C0.697771 20.7116 0.879397 20.7501 1.06139 20.7388C1.24338 20.7276 1.41886 20.6669 1.56901 20.5635L14.569 11.5635C14.7018 11.4714 14.8104 11.3486 14.8854 11.2054C14.9604 11.0623 14.9995 10.9031 14.9995 10.7415C14.9995 10.5799 14.9604 10.4207 14.8854 10.2775C14.8104 10.1344 14.7018 10.0115 14.569 9.91948L1.56901 0.919482C1.41915 0.814937 1.24346 0.753541 1.0611 0.741987C0.878744 0.730434 0.696714 0.769167 0.534858 0.853964C0.373002 0.93876 0.237532 1.06637 0.143218 1.22287C0.0489047 1.37937 -0.000633163 1.55876 6.10981e-06 1.74148V19.7415C-2.39712e-05 19.924 0.0499091 20.1031 0.144393 20.2593C0.238878 20.4154 0.374308 20.5428 0.536006 20.6275ZM2.00001 3.65048L12.243 10.7415L2.00001 17.8325V3.65048Z" fill="#929292"/>
</svg>
