<svg width="15" height="21" viewBox="0 0 15 21" fill="none" xmlns="http://www.w3.org/2000/svg">
<path d="M14.464 20.6275C14.3022 20.7116 14.1206 20.7501 13.9386 20.7388C13.7566 20.7276 13.5811 20.6669 13.431 20.5635L0.430994 11.5635C0.298156 11.4714 0.189601 11.3486 0.114624 11.2054C0.0396471 11.0623 0.000482559 10.9031 0.000482559 10.7415C0.000482559 10.5799 0.0396471 10.4207 0.114624 10.2775C0.189601 10.1344 0.298156 10.0115 0.430994 9.91948L13.431 0.919482C13.5809 0.814937 13.7565 0.753541 13.9389 0.741987C14.1213 0.730434 14.3033 0.769167 14.4651 0.853964C14.627 0.93876 14.7625 1.06637 14.8568 1.22287C14.9511 1.37937 15.0006 1.55876 15 1.74148V19.7415C15 19.924 14.9501 20.1031 14.8556 20.2593C14.7611 20.4154 14.6257 20.5428 14.464 20.6275ZM13 3.65048L2.75699 10.7415L13 17.8325V3.65048Z" fill="#929292"/>
</svg>
