<svg width="68" height="22" viewBox="0 0 68 22" fill="none" xmlns="http://www.w3.org/2000/svg">
<g clip-path="url(#clip0_30_326)">
<path d="M44.0767 0.456055C39.3497 0.456055 35.1056 2.9157 35.1056 7.42927C35.1056 12.6275 42.6027 12.9825 42.6027 15.5689C42.6027 16.6593 41.332 17.6482 39.1972 17.6482C36.1476 17.6482 33.8603 16.2789 33.8603 16.2789L32.8946 20.8432C32.8946 20.8432 35.5122 22.0096 39.0193 22.0096C44.2038 22.0096 48.27 19.4486 48.27 14.8336C48.27 9.35641 40.7475 9.00141 40.7475 6.59248C40.7475 5.73034 41.7894 4.79213 43.9242 4.79213C46.3385 4.79213 48.3208 5.78105 48.3208 5.78105L49.2865 1.36891C49.2611 1.36891 47.1009 0.456055 44.0767 0.456055ZM0.771478 0.785698L0.644409 1.44498C0.644409 1.44498 2.62669 1.79998 4.43107 2.53534C6.74373 3.37213 6.89622 3.85391 7.30284 5.34998L11.547 21.6546H17.2397L25.9566 0.785698H20.2893L14.6729 14.9857L12.3856 2.94105C12.1823 1.57177 11.1149 0.785698 9.7934 0.785698H0.771478ZM28.2439 0.785698L23.7964 21.6546H29.2096L33.6316 0.785698H28.2439ZM58.3847 0.785698C57.0886 0.785698 56.4024 1.47034 55.8941 2.68748L47.965 21.6546H53.6323L54.7251 18.485H61.6377L62.2984 21.6546H67.3049L62.9592 0.785698H58.3847ZM59.1217 6.44034L60.799 14.2757H56.3007L59.1217 6.44034Z" fill="#AFB5D1"/>
</g>
<defs>
<clipPath id="clip0_30_326">
<rect width="66.6605" height="21.5536" fill="white" transform="translate(0.644409 0.456055)"/>
</clipPath>
</defs>
</svg>
